# xmcd
#
# Track frame offsets:
# 150
# 24425
# 38510
# 53687
# 78858
# 95120
# 109979
# 138501
# 166042
# 194761
# 212432
# 239834
# 261920
# 287868
# 310900
#
# Disc length: 4514 seconds
#
#
# Revision: 0
# Processed by: cddbd v1.4PL0 Copyright (c) Steve Scherf et al.
# Submitted via: FreeRIP 2.30 
#
DISCID=d511a00f
DTITLE=Sean Wilson - Golden Dreams  Disk 1
DYEAR=2001
DGENRE=Irish 
TTITLE0=Our house is a home - Pretty little girle from omagh - The gypsy - The ferryman 
TTITLE1=Whiskey in the jar - Goodbye mick and goodbye pat - The golden jubilee - Good old mountain dew
TTITLE2=Hills around clonmel - Golden dreams - When my blue moon turns to gold
TTITLE3=Help me make it through the night - I wonder where you are tonight - Tell me what he's got - Little cabin home - Dim lights 
TTITLE4=Cottonfields - San quentin - I'm going to be a country boy again -   
TTITLE5=Arms full of empty - The green fields of ireland - Donega Dannyl
TTITLE6=Slaney valley - The old log cabin - An irish country home -Light of the moon - The old rustic bridge 
TTITLE7=The blacksmith - Twenty one years -Galway bay - Fiddler's green - Brigid hogan 
TTITLE8=Come back paddy reilly - When god comes - Macushla - Moutains of mourne -My green valleys 
TTITLE9=Shores of amerikay - Slievenamon - Teh wild colnial boy
TTITLE10=Will you visit me - Branded man - Sing me back home - Green willow - Bunch of thyme
TTITLE11=Snowy breasted pearl - I'll remember you love - The nightingale - Little sweethearts - Old claddagh ring 
TTITLE12=Sweet mary - My eileen is waiting - The green glens of antrim - Glenswilly - Lough sheelin side 
TTITLE13=Easy and slow - The old lobby - Hear the wind blow - The ring your mother wore - Flower of sweet strabane 
TTITLE14=Tears of st. ann - Erne's lovely shore - Will you go lassie go - Slieve gallen's braes - Goodbye my darlin
EXTD=15 Tracks all Medleys
EXTT0=
EXTT1=
EXTT2=
EXTT3=
EXTT4=
EXTT5=
EXTT6=
EXTT7=
EXTT8=
EXTT9=
EXTT10=
EXTT11=
EXTT12=
EXTT13=
EXTT14=
PLAYORDER=
